<svg xmlns="http://www.w3.org/2000/svg" xmlns:xlink="http://www.w3.org/1999/xlink" width="539.9280000000001" height="88.05600000000001"><path d="M39.38 0L43.99 0L43.99-51.98L39.38-51.98L39.38-29.45L11.09-29.45L11.09-51.98L6.48-51.98L6.48 0L11.09 0L11.09-25.06L39.38-25.06ZM53.71-17.71C53.71-6.77 60.62 0.86 69.91 0.86C79.06 0.86 86.18-6.55 86.18-17.71C86.18-29.16 79.34-36.65 69.91-36.65C60.62-36.65 53.71-29.38 53.71-17.71ZM57.96-17.71C57.96-27.07 62.50-33.05 69.91-33.05C77.26-33.05 81.94-27.07 81.94-17.71C81.94-8.71 77.18-2.74 69.91-2.74C62.21-2.74 57.96-9.22 57.96-17.71ZM94.82 0L99 0L99-51.98L94.82-51.98ZM132.62-22.18C129.46-21.89 125.64-21.46 122.54-21.10C114.55-20.23 108-16.49 108-9.36C108-3.17 112.54 0.86 118.94 0.86C126.58 0.86 132.12-4.39 134.35-10.22C132.05-3.02 135.22 1.94 141.77-0.43L142.56-4.03C139.54-2.88 136.73-3.67 136.73-7.56L136.73-24.55C136.73-31.82 132.05-36.65 123.26-36.65C115.70-36.65 111.17-32.26 108.43-27.79L111.89-25.27C113.54-29.16 117.43-33.19 123.12-33.19C129.67-33.19 132.62-29.74 132.62-24.48ZM122.90-17.71C125.93-18.14 129.31-18.58 132.62-18.94L132.62-15.70C132.62-8.35 126-2.74 119.45-2.74C114.91-2.74 112.25-5.26 112.25-9.29C112.25-14.26 116.50-16.78 122.90-17.71ZM180.29-33.19C186.34-33.19 189.72-29.38 189.72-22.39L189.72 0L193.90 0L193.90-19.73C194.40-28.94 199.80-33.19 204.77-33.19C210.67-33.19 213.48-29.95 213.48-23.04L213.48 0L217.66 0L217.66-23.11C217.66-32.98 212.11-36.58 206.06-36.58C198.65-36.58 195.48-33.05 192.67-28.08C191.23-33.98 186.77-36.58 181.73-36.58C175.18-36.58 170.93-33.12 168.77-27.36L167.98-35.71L165.24-35.71L165.24 0L169.42 0L169.42-18.94C169.78-29.38 176.40-33.19 180.29-33.19ZM252.86-16.63C252.29-6.62 245.38-2.59 240.91-2.59C235.37-2.59 231.91-5.98 231.91-12.53L231.91-35.71L227.74-35.71L227.74-12.24C227.74-3.38 233.35 0.86 239.69 0.86C246.31 0.86 250.78-2.66 253.30-8.28L254.30 0L257.04 0L257.04-35.71L252.86-35.71ZM272.02-19.08C272.59-29.09 279.50-33.12 283.97-33.12C289.51-33.12 292.97-29.74 292.97-23.18L292.97 0L297.14 0L297.14-23.47C297.14-32.33 291.53-36.58 285.19-36.58C278.57-36.58 274.10-33.05 271.58-27.43L270.58-35.71L267.84-35.71L267.84 0L272.02 0ZM334.30 0L337.03 0L337.03-51.98L332.86-51.98L332.86-28.44C330.62-33.48 325.87-36.65 320.40-36.65C311.90-36.65 305.42-29.66 305.42-17.93C305.42-6.70 311.76 0.94 321.05 0.94C326.95 0.94 331.56-3.10 333.14-7.49ZM321.41-2.66C314.14-2.66 309.67-8.86 309.67-17.93C309.67-27.14 313.92-32.90 321.19-32.90C327.46-32.90 332.93-27.07 332.93-17.93C332.93-8.78 327.74-2.66 321.41-2.66ZM345.67-17.71C345.67-6.77 352.58 0.86 361.87 0.86C371.02 0.86 378.14-6.55 378.14-17.71C378.14-29.16 371.30-36.65 361.87-36.65C352.58-36.65 345.67-29.38 345.67-17.71ZM349.92-17.71C349.92-27.07 354.46-33.05 361.87-33.05C369.22-33.05 373.90-27.07 373.90-17.71C373.90-8.71 369.14-2.74 361.87-2.74C354.17-2.74 349.92-9.22 349.92-17.71ZM392.69-32.98L392.90-51.98L387.79-51.98L387.94-32.98L389.45-16.27L391.18-16.27ZM393.48 0L393.48-9.07L387.14-9.07L387.14 0ZM410.54-32.98L410.76-51.98L405.65-51.98L405.79-32.98L407.30-16.27L409.03-16.27ZM411.34 0L411.34-9.07L405.00-9.07L405.00 0ZM482.83-13.68L487.01 0L491.83 0L475.78-51.98L469.30-51.98L452.38 0L457.13 0L461.45-13.68ZM481.82-17.86L462.67-17.86L472.54-48.38ZM528.05-13.68L532.22 0L537.05 0L520.99-51.98L514.51-51.98L497.59 0L502.34 0L506.66-13.68ZM527.04-17.86L507.89-17.86L517.75-48.38Z"/></svg>