<svg xmlns="http://www.w3.org/2000/svg" xmlns:xlink="http://www.w3.org/1999/xlink" width="431.064" height="88.05600000000001"><path d="M39.38 0L43.99 0L43.99-51.98L39.38-51.98L39.38-29.45L11.09-29.45L11.09-51.98L6.48-51.98L6.48 0L11.09 0L11.09-25.06L39.38-25.06ZM53.71-17.71C53.71-6.77 60.62 0.86 69.91 0.86C79.06 0.86 86.18-6.55 86.18-17.71C86.18-29.16 79.34-36.65 69.91-36.65C60.62-36.65 53.71-29.38 53.71-17.71ZM57.96-17.71C57.96-27.07 62.50-33.05 69.91-33.05C77.26-33.05 81.94-27.07 81.94-17.71C81.94-8.71 77.18-2.74 69.91-2.74C62.21-2.74 57.96-9.22 57.96-17.71ZM92.66-17.71C92.66-6.77 99.58 0.86 108.86 0.86C118.01 0.86 125.14-6.55 125.14-17.71C125.14-29.16 118.30-36.65 108.86-36.65C99.58-36.65 92.66-29.38 92.66-17.71ZM96.91-17.71C96.91-27.07 101.45-33.05 108.86-33.05C116.21-33.05 120.89-27.07 120.89-17.71C120.89-8.71 116.14-2.74 108.86-2.74C101.16-2.74 96.91-9.22 96.91-17.71ZM133.78 0L137.95 0L137.95-51.98L133.78-51.98ZM171.58-22.18C168.41-21.89 164.59-21.46 161.50-21.10C153.50-20.23 146.95-16.49 146.95-9.36C146.95-3.17 151.49 0.86 157.90 0.86C165.53 0.86 171.07-4.39 173.30-10.22C171-3.02 174.17 1.94 180.72-0.43L181.51-4.03C178.49-2.88 175.68-3.67 175.68-7.56L175.68-24.55C175.68-31.82 171-36.65 162.22-36.65C154.66-36.65 150.12-32.26 147.38-27.79L150.84-25.27C152.50-29.16 156.38-33.19 162.07-33.19C168.62-33.19 171.58-29.74 171.58-24.48ZM161.86-17.71C164.88-18.14 168.26-18.58 171.58-18.94L171.58-15.70C171.58-8.35 164.95-2.74 158.40-2.74C153.86-2.74 151.20-5.26 151.20-9.29C151.20-14.26 155.45-16.78 161.86-17.71ZM227.02-22.18C223.85-21.89 220.03-21.46 216.94-21.10C208.94-20.23 202.39-16.49 202.39-9.36C202.39-3.17 206.93 0.86 213.34 0.86C220.97 0.86 226.51-4.39 228.74-10.22C226.44-3.02 229.61 1.94 236.16-0.43L236.95-4.03C233.93-2.88 231.12-3.67 231.12-7.56L231.12-24.55C231.12-31.82 226.44-36.65 217.66-36.65C210.10-36.65 205.56-32.26 202.82-27.79L206.28-25.27C207.94-29.16 211.82-33.19 217.51-33.19C224.06-33.19 227.02-29.74 227.02-24.48ZM217.30-17.71C220.32-18.14 223.70-18.58 227.02-18.94L227.02-15.70C227.02-8.35 220.39-2.74 213.84-2.74C209.30-2.74 206.64-5.26 206.64-9.29C206.64-14.26 210.89-16.78 217.30-17.71ZM277.78-4.18C272.30-1.87 268.06-3.38 268.06-8.28L268.06-31.90L277.63-31.90L277.63-35.71L268.06-35.71L268.06-50.40C267.12-48.53 264.96-44.93 263.81-43.27L263.81-35.71L255.67-35.71L255.67-31.90L263.88-31.90L263.88-7.85C263.88-2.09 267.12 0.86 271.66 0.86C273.53 0.86 275.62 0.22 276.84-0.43ZM283.18-17.71C283.18-6.77 290.09 0.86 299.38 0.86C308.52 0.86 315.65-6.55 315.65-17.71C315.65-29.16 308.81-36.65 299.38-36.65C290.09-36.65 283.18-29.38 283.18-17.71ZM287.42-17.71C287.42-27.07 291.96-33.05 299.38-33.05C306.72-33.05 311.40-27.07 311.40-17.71C311.40-8.71 306.65-2.74 299.38-2.74C291.67-2.74 287.42-9.22 287.42-17.71ZM351.00 0L353.74 0L353.74-51.98L349.56-51.98L349.56-28.44C347.33-33.48 342.58-36.65 337.10-36.65C328.61-36.65 322.13-29.66 322.13-17.93C322.13-6.70 328.46 0.94 337.75 0.94C343.66 0.94 348.26-3.10 349.85-7.49ZM338.11-2.66C330.84-2.66 326.38-8.86 326.38-17.93C326.38-27.14 330.62-32.90 337.90-32.90C344.16-32.90 349.63-27.07 349.63-17.93C349.63-8.78 344.45-2.66 338.11-2.66ZM362.38-17.71C362.38-6.77 369.29 0.86 378.58 0.86C387.72 0.86 394.85-6.55 394.85-17.71C394.85-29.16 388.01-36.65 378.58-36.65C369.29-36.65 362.38-29.38 362.38-17.71ZM366.62-17.71C366.62-27.07 371.16-33.05 378.58-33.05C385.92-33.05 390.60-27.07 390.60-17.71C390.60-8.71 385.85-2.74 378.58-2.74C370.87-2.74 366.62-9.22 366.62-17.71ZM424.30-9.29C424.30-5.33 421.13-2.88 415.51-2.88C409.54-2.88 405.29-7.49 403.78-11.30L400.39-7.99C402.70-3.82 408.02 0.86 415.44 0.86C423 0.86 428.33-3.24 428.33-9.65C428.33-14.98 424.08-18.00 419.11-19.30C416.59-19.94 414.29-20.52 412.06-21.24C408.17-22.46 406.30-24.34 406.30-27.00C406.30-30.46 409.03-32.98 414.14-32.98C418.61-32.98 422.28-30.24 424.37-26.42L427.39-29.88C424.58-33.26 420.12-36.50 414.22-36.50C406.87-36.50 402.26-32.47 402.26-26.86C402.26-22.03 405.79-19.01 410.83-17.35C413.06-16.63 415.51-15.98 418.03-15.34C421.85-14.33 424.30-12.38 424.30-9.29Z"/></svg>