<svg xmlns="http://www.w3.org/2000/svg" xmlns:xlink="http://www.w3.org/1999/xlink" width="261" height="91" viewBox="0 0 261 91">
  <defs>
    <filter id="Rectángulo_83" x="0" y="0" width="261" height="91" filterUnits="userSpaceOnUse">
      <feOffset dx="4" dy="4" input="SourceAlpha"/>
      <feGaussianBlur stdDeviation="5.5" result="blur"/>
      <feFlood flood-opacity="0.369"/>
      <feComposite operator="in" in2="blur"/>
    </filter>
    <filter id="Rectángulo_83-2" x="0" y="0" width="261" height="91" filterUnits="userSpaceOnUse">
      <feOffset dx="4" dy="4" input="SourceAlpha"/>
      <feGaussianBlur stdDeviation="5.5" result="blur-2"/>
      <feFlood flood-opacity="0.103" result="color"/>
      <feComposite operator="out" in="SourceGraphic" in2="blur-2"/>
      <feComposite operator="in" in="color"/>
      <feComposite operator="in" in2="SourceGraphic"/>
    </filter>
    <linearGradient id="linear-gradient" x1="0.5" x2="0.5" y2="1" gradientUnits="objectBoundingBox">
      <stop offset="0" stop-color="#fff"/>
      <stop offset="1" stop-color="#fff" stop-opacity="0"/>
    </linearGradient>
  </defs>
  <g id="Grupo_970" data-name="Grupo 970" transform="translate(-2713.5 -4076.487)">
    <g id="Grupo_969" data-name="Grupo 969" transform="translate(2296 2910)">
      <g id="Grupo_937" data-name="Grupo 937" transform="translate(108 -27.013)">
        <g data-type="innerShadowGroup">
          <g transform="matrix(1, 0, 0, 1, 309.5, 1193.5)" filter="url(#Rectángulo_83)">
            <g id="Rectángulo_83-3" data-name="Rectángulo 83" transform="translate(12.5 12.5)" fill="rgba(255,255,255,0.27)" stroke="#fff" stroke-linecap="square" stroke-linejoin="bevel" stroke-width="0.5" opacity="0.51">
              <rect width="228" height="58" rx="29" stroke="none"/>
              <rect x="0.25" y="0.25" width="227.5" height="57.5" rx="28.75" fill="none"/>
            </g>
          </g>
          <rect id="Rectángulo_83-4" data-name="Rectángulo 83" width="228" height="58" rx="29" transform="translate(322 1206)" fill="rgba(255,255,255,0.27)" opacity="0.51"/>
          <g transform="matrix(1, 0, 0, 1, 309.5, 1193.5)" filter="url(#Rectángulo_83-2)">
            <rect id="Rectángulo_83-5" data-name="Rectángulo 83" width="228" height="58" rx="29" transform="translate(12.5 12.5)" fill="#fff" opacity="0.51"/>
          </g>
          <g id="Rectángulo_83-6" data-name="Rectángulo 83" transform="translate(322 1206)" fill="none" stroke="#fff" stroke-linecap="square" stroke-linejoin="bevel" stroke-width="0.5" opacity="0.51">
            <rect width="228" height="58" rx="29" stroke="none"/>
            <rect x="0.25" y="0.25" width="227.5" height="57.5" rx="28.75" fill="none"/>
          </g>
        </g>
        <path id="VOLVER_AL_INICIO" data-name="VOLVER AL INICIO" d="M5.525-3.468,2.992-12.274H.17L4.131,0H6.783l4.233-12.274H8.194Zm6-2.635c0,3.944,2.329,6.443,5.933,6.443,3.349,0,5.9-2.363,5.9-6.443,0-3.927-2.431-6.511-5.9-6.511C13.974-12.614,11.526-10.03,11.526-6.1Zm2.669,0c0-2.5,1.122-4.284,3.264-4.284,2.21,0,3.213,1.9,3.213,4.284,0,2.822-1.292,4.216-3.213,4.216C15.215-1.887,14.2-3.672,14.2-6.1Zm13.838-6.171H25.4V0h8.891V-2.363H28.033Zm11.1,8.806L36.6-12.274H33.779L37.74,0h2.652l4.233-12.274H41.8ZM46.07,0h10.1V-2.4H48.705V-5.083h6.273V-7.361H48.705v-2.6h7.157v-2.312H46.07ZM63.087-4.879c1.258,0,2.006.612,2.023,1.8C65.127-1.8,65.3-.493,65.841,0h2.89a4.852,4.852,0,0,1-.952-3.179,2.8,2.8,0,0,0-1.921-2.686A3.494,3.494,0,0,0,68.221-8.84c0-2.125-1.632-3.434-4.114-3.434H58.038V0H60.69V-4.879Zm1.02-5.1A1.353,1.353,0,0,1,65.569-8.6c0,.952-.731,1.462-1.836,1.462H60.69V-9.979ZM77.078-2.686H80.8L81.6,0h2.771l-4-12.274H77.69L73.576,0h2.7Zm3.06-2.278H77.775l1.207-4.182Zm8.483-7.31H85.986V0h8.891V-2.363H88.621ZM100.487,0h2.652V-12.274h-2.652Zm15.742,0V-12.274h-2.5v7.939L108.9-12.274h-3.043V0h2.55V-8.687L113.7,0Zm2.72,0H121.6V-12.274h-2.652Zm13.872-4.4c-.646,1.8-1.7,2.448-3.111,2.448-1.972,0-3.23-1.7-3.23-4.165,0-2.72,1.258-4.216,3.213-4.216a3.138,3.138,0,0,1,2.924,2.516l2.176-1.054a5.071,5.071,0,0,0-5.032-3.74c-3.672,0-5.95,2.686-5.95,6.528,0,3.876,2.278,6.426,5.882,6.426a5.336,5.336,0,0,0,5.338-3.774ZM136.986,0h2.652V-12.274h-2.652Zm4.862-6.1c0,3.944,2.329,6.443,5.933,6.443,3.349,0,5.9-2.363,5.9-6.443,0-3.927-2.431-6.511-5.9-6.511C144.3-12.614,141.848-10.03,141.848-6.1Zm2.669,0c0-2.5,1.122-4.284,3.264-4.284,2.21,0,3.213,1.9,3.213,4.284,0,2.822-1.292,4.216-3.213,4.216C145.537-1.887,144.517-3.672,144.517-6.1Z" transform="translate(383.777 1242)" fill="#fff"/>
        <g id="Elipse_83" data-name="Elipse 83" transform="translate(327 1212)" stroke="#fff" stroke-width="1" opacity="0.35" fill="url(#linear-gradient)">
          <circle cx="23.5" cy="23.5" r="23.5" stroke="none"/>
          <circle cx="23.5" cy="23.5" r="23" fill="none"/>
        </g>
        <path id="arrow-alt-circle-right-regular" d="M15.883,25.6V22.977a.791.791,0,0,1,.788-.788h7.62v-4.4a.79.79,0,0,1,1.347-.558l6.5,6.5a.789.789,0,0,1,0,1.117l-6.5,6.5a.788.788,0,0,1-1.347-.558v-4.4h-7.62a.791.791,0,0,1-.788-.785Z" transform="translate(374.14 1259.293) rotate(180)"/>
      </g>
    </g>
  </g>
</svg>
