<svg xmlns="http://www.w3.org/2000/svg" xmlns:xlink="http://www.w3.org/1999/xlink" width="432" height="72"><path d="M4.39-3.66L4.39-54.07L10.16-54.07L10.16-32.63L25.84-32.63L25.84-54.07L31.61-54.07L31.61-3.66L25.84-3.66L25.84-27.14L10.16-27.14L10.16-3.66L4.39-3.66ZM54.07-39.23L54.07-39.23Q60.68-39.23 64.44-33.40L64.44-33.40Q67.68-28.55 67.68-20.74L67.68-20.74Q67.68-14.87 65.74-10.44L65.74-10.44Q62.16-2.21 53.93-2.21L53.93-2.21Q47.57-2.21 43.77-7.63L43.77-7.63Q40.32-12.59 40.32-20.74L40.32-20.74Q40.32-29.53 44.30-34.56L44.30-34.56Q48.09-39.23 54.07-39.23ZM53.93-34.21L53.93-34.21Q50.06-34.21 47.88-30.16L47.88-30.16Q45.95-26.61 45.95-20.74L45.95-20.74Q45.95-15.33 47.53-11.92L47.53-11.92Q49.71-7.24 54-7.24L54-7.24Q57.94-7.24 60.12-11.29L60.12-11.29Q62.05-14.84 62.05-20.67L62.05-20.67Q62.05-26.75 60.05-30.23L60.05-30.23Q57.90-34.21 53.93-34.21ZM92.81-54.07L92.81-11.53Q92.81-8.44 95.77-8.44L95.77-8.44Q98.19-8.44 101.07-9L101.07-9L101.07-3.62Q96.82-3.02 94.82-3.02L94.82-3.02Q87.19-3.02 87.19-10.51L87.19-10.51L87.19-54.07L92.81-54.07ZM118.76-27.88L112.99-27.88Q114.40-39.27 126.04-39.27L126.04-39.27Q137.74-39.27 137.74-26.72L137.74-26.72L137.74-9.53Q137.74-7.49 139.61-7.49L139.61-7.49Q140.24-7.49 141.33-7.73L141.33-7.73L141.33-2.67Q139.89-2.32 137.88-2.32L137.88-2.32Q133.14-2.32 132.50-7.63L132.50-7.63Q127.62-2.32 121.78-2.32L121.78-2.32Q117.95-2.32 115.49-4.32L115.49-4.32Q112.25-6.93 112.25-12.02L112.25-12.02Q112.25-23.87 132.57-25.28L132.57-25.28L132.57-26.72Q132.57-34.45 126.04-34.45L126.04-34.45Q119.29-34.45 118.76-27.88L118.76-27.88ZM132.57-16.00L132.57-20.74Q117.53-20.00 117.53-12.30L117.53-12.30Q117.53-7.14 122.63-7.14L122.63-7.14Q126.11-7.14 129.41-9.81L129.41-9.81Q132.57-12.30 132.57-16.00L132.57-16.00ZM183.30-37.86L187.10-37.86L187.91-35.19Q190.97-39.23 194.31-39.23L194.31-39.23Q197.65-39.23 199.48-35.19L199.48-35.19Q202.68-39.23 206.51-39.23L206.51-39.23Q212.70-39.23 212.70-30.59L212.70-30.59L212.70-3.66L207.53-3.66L207.53-29.60Q207.53-34.63 205.00-34.63L205.00-34.63Q202.71-34.63 201.30-32.10L201.30-32.10Q200.50-30.52 200.50-28.65L200.50-28.65L200.50-3.66L195.47-3.66L195.47-29.67Q195.47-34.63 192.87-34.63L192.87-34.63Q188.47-34.63 188.47-28.72L188.47-28.72L188.47-3.66L183.30-3.66L183.30-37.86ZM221.27-14.10L221.27-37.86L226.62-37.86L226.62-14.66Q226.62-7.24 232.49-7.24L232.49-7.24Q236.29-7.24 239.17-10.05L239.17-10.05Q241.77-12.55 241.77-16.63L241.77-16.63L241.77-37.86L247.11-37.86L247.11-3.66L243.14-3.66L242.19-7.70Q237.48-2.21 231.29-2.21L231.29-2.21Q225.91-2.21 223.21-6.33L223.21-6.33Q221.27-9.35 221.27-14.10L221.27-14.10ZM257.27-37.86L261.53-37.86L262.34-33.47Q267.75-39.23 273.02-39.23L273.02-39.23Q278.89-39.23 281.60-34.07L281.60-34.07Q283.11-31.15 283.11-27L283.11-27L283.11-3.66L277.77-3.66L277.77-25.42Q277.77-34.14 272.18-34.14L272.18-34.14Q268.38-34.14 265.57-31.39L265.57-31.39Q262.62-28.44 262.62-24.61L262.62-24.61L262.62-3.66L257.27-3.66L257.27-37.86ZM313.31-34.00L313.31-54.07L318.66-54.07L318.66-3.66L314.75-3.66L313.38-8.12Q309.73-2.21 303.82-2.21L303.82-2.21Q298.37-2.21 295.03-7.49L295.03-7.49Q291.66-12.62 291.66-21.16L291.66-21.16Q291.66-28.16 294.19-32.98L294.19-32.98Q297.53-39.23 303.75-39.23L303.75-39.23Q308.92-39.23 313.31-34.00L313.31-34.00ZM305.05-34.14L305.05-34.14Q301.32-34.14 299.14-30.09L299.14-30.09Q297.28-26.44 297.28-21.09L297.28-21.09Q297.28-15.29 299.00-11.71L299.00-11.71Q301.04-7.31 305.05-7.31L305.05-7.31Q308.67-7.31 311.06-10.93L311.06-10.93Q313.52-14.55 313.52-21.09L313.52-21.09Q313.52-26.40 311.66-29.81L311.66-29.81Q309.38-34.14 305.05-34.14ZM342.07-39.23L342.07-39.23Q348.68-39.23 352.44-33.40L352.44-33.40Q355.68-28.55 355.68-20.74L355.68-20.74Q355.68-14.87 353.74-10.44L353.74-10.44Q350.16-2.21 341.93-2.21L341.93-2.21Q335.57-2.21 331.77-7.63L331.77-7.63Q328.32-12.59 328.32-20.74L328.32-20.74Q328.32-29.53 332.30-34.56L332.30-34.56Q336.09-39.23 342.07-39.23ZM341.93-34.21L341.93-34.21Q338.06-34.21 335.88-30.16L335.88-30.16Q333.95-26.61 333.95-20.74L333.95-20.74Q333.95-15.33 335.53-11.92L335.53-11.92Q337.71-7.24 342-7.24L342-7.24Q345.94-7.24 348.12-11.29L348.12-11.29Q350.05-14.84 350.05-20.67L350.05-20.67Q350.05-26.75 348.05-30.23L348.05-30.23Q345.90-34.21 341.93-34.21ZM375.12-13.82L373.82-57.16L382.18-57.16L380.88-13.82L375.12-13.82ZM373.82 1.09L373.82-7.28L382.18-7.28L382.18 1.09L373.82 1.09ZM411.12-13.82L409.82-57.16L418.18-57.16L416.88-13.82L411.12-13.82ZM409.82 1.09L409.82-7.28L418.18-7.28L418.18 1.09L409.82 1.09Z"/></svg>