<svg xmlns="http://www.w3.org/2000/svg" width="205.14" height="296.315" viewBox="0 0 205.14 296.315">
  <path id="Trazado_4521" data-name="Trazado 4521" d="M231.3,667.946a10.409,10.409,0,0,0,12.516-5.929A357.553,357.553,0,0,0,272.581,520.74a357.562,357.562,0,0,0-28.767-141.279,10.41,10.41,0,0,0-12.516-5.928,211.323,211.323,0,0,1-121.572,0,10.409,10.409,0,0,0-12.516,5.928,361.3,361.3,0,0,0,0,282.556,10.409,10.409,0,0,0,12.516,5.929,211.307,211.307,0,0,1,121.573,0" transform="translate(-67.941 -372.582)" fill="#c1c1c1" stroke="#fff" stroke-width="1"/>
</svg>
